<mxfile host="app.diagrams.net" modified="2021-10-05T10:26:50.938Z" agent="5.0 (Windows NT 10.0; Win64; x64) AppleWebKit/537.36 (KHTML, like Gecko) Chrome/94.0.4606.71 Safari/537.36" etag="LhuZVMwjkkeI67-3JhXS" version="15.1.4" type="github">
  <diagram id="GvziGZgwwjXT1dV84u-s" name="Page-1">
    <mxGraphModel dx="2249" dy="798" grid="1" gridSize="10" guides="1" tooltips="1" connect="1" arrows="1" fold="1" page="1" pageScale="1" pageWidth="827" pageHeight="1169" math="0" shadow="0">
      <root>
        <mxCell id="0" />
        <mxCell id="1" parent="0" />
        <mxCell id="fWEaLsY42Vd3MQqkWYfv-93" value="p : platoon" style="html=1;align=left;verticalAlign=top;rounded=1;absoluteArcSize=1;arcSize=10;dashed=0;" parent="1" vertex="1">
          <mxGeometry x="584.37" y="235" width="305.63" height="80" as="geometry" />
        </mxCell>
        <mxCell id="fWEaLsY42Vd3MQqkWYfv-40" value="&lt;div align=&quot;left&quot;&gt;r : road&lt;/div&gt;" style="html=1;align=left;verticalAlign=top;rounded=1;absoluteArcSize=1;arcSize=10;dashed=0;" parent="1" vertex="1">
          <mxGeometry y="240" width="90" height="40" as="geometry" />
        </mxCell>
        <mxCell id="fWEaLsY42Vd3MQqkWYfv-41" value="" style="rounded=0;orthogonalLoop=1;jettySize=auto;html=1;endArrow=none;endFill=0;exitX=1;exitY=0.5;exitDx=0;exitDy=0;" parent="1" source="fWEaLsY42Vd3MQqkWYfv-40" edge="1">
          <mxGeometry relative="1" as="geometry">
            <mxPoint x="225" y="375" as="sourcePoint" />
            <mxPoint x="110" y="200" as="targetPoint" />
            <Array as="points">
              <mxPoint x="110" y="260" />
              <mxPoint x="110" y="200" />
            </Array>
          </mxGeometry>
        </mxCell>
        <mxCell id="fWEaLsY42Vd3MQqkWYfv-44" value="v1 :&amp;nbsp; vehicle" style="html=1;align=center;verticalAlign=top;rounded=1;absoluteArcSize=1;arcSize=10;dashed=0;" parent="1" vertex="1">
          <mxGeometry x="165" y="170" width="95" height="50" as="geometry" />
        </mxCell>
        <mxCell id="fWEaLsY42Vd3MQqkWYfv-45" value="connV" style="html=1;" parent="1" vertex="1">
          <mxGeometry x="165" y="190" width="35" height="20" as="geometry" />
        </mxCell>
        <mxCell id="fWEaLsY42Vd3MQqkWYfv-46" value="next" style="html=1;" parent="1" vertex="1">
          <mxGeometry x="230" y="190" width="30" height="20" as="geometry" />
        </mxCell>
        <mxCell id="fWEaLsY42Vd3MQqkWYfv-47" value="connV" style="html=1;" parent="1" vertex="1">
          <mxGeometry x="165" y="310" width="50" height="20" as="geometry" />
        </mxCell>
        <mxCell id="fWEaLsY42Vd3MQqkWYfv-48" value="&lt;div align=&quot;right&quot;&gt;&amp;nbsp; v2 : vehicle&lt;br&gt;&lt;/div&gt;" style="html=1;align=center;verticalAlign=top;rounded=1;absoluteArcSize=1;arcSize=10;dashed=0;" parent="1" vertex="1">
          <mxGeometry x="165" y="230" width="95" height="50" as="geometry" />
        </mxCell>
        <mxCell id="fWEaLsY42Vd3MQqkWYfv-49" value="connV" style="html=1;" parent="1" vertex="1">
          <mxGeometry x="165" y="250" width="35" height="20" as="geometry" />
        </mxCell>
        <mxCell id="fWEaLsY42Vd3MQqkWYfv-50" value="next" style="html=1;" parent="1" vertex="1">
          <mxGeometry x="230" y="250" width="30" height="20" as="geometry" />
        </mxCell>
        <mxCell id="fWEaLsY42Vd3MQqkWYfv-51" value="" style="rounded=0;orthogonalLoop=1;jettySize=auto;html=1;endArrow=none;endFill=0;exitX=0;exitY=0.5;exitDx=0;exitDy=0;" parent="1" source="fWEaLsY42Vd3MQqkWYfv-49" target="fWEaLsY42Vd3MQqkWYfv-53" edge="1">
          <mxGeometry relative="1" as="geometry">
            <mxPoint x="145" y="245" as="sourcePoint" />
          </mxGeometry>
        </mxCell>
        <mxCell id="fWEaLsY42Vd3MQqkWYfv-52" value="" style="rounded=0;orthogonalLoop=1;jettySize=auto;html=1;endArrow=halfCircle;endFill=0;endSize=6;strokeWidth=1;entryX=0.06;entryY=0.52;entryDx=0;entryDy=0;entryPerimeter=0;" parent="1" target="fWEaLsY42Vd3MQqkWYfv-53" edge="1">
          <mxGeometry relative="1" as="geometry">
            <mxPoint x="105" y="259.84" as="sourcePoint" />
            <mxPoint x="125" y="259.84" as="targetPoint" />
          </mxGeometry>
        </mxCell>
        <mxCell id="fWEaLsY42Vd3MQqkWYfv-53" value="" style="ellipse;whiteSpace=wrap;html=1;fontFamily=Helvetica;fontSize=12;fontColor=#000000;align=center;strokeColor=#000000;fillColor=#ffffff;points=[];aspect=fixed;resizable=0;" parent="1" vertex="1">
          <mxGeometry x="135" y="255" width="10" height="10" as="geometry" />
        </mxCell>
        <mxCell id="fWEaLsY42Vd3MQqkWYfv-54" value="v3 : vehicle" style="html=1;align=center;verticalAlign=top;rounded=1;absoluteArcSize=1;arcSize=10;dashed=0;" parent="1" vertex="1">
          <mxGeometry x="165" y="300" width="95" height="50" as="geometry" />
        </mxCell>
        <mxCell id="fWEaLsY42Vd3MQqkWYfv-55" value="connV" style="html=1;" parent="1" vertex="1">
          <mxGeometry x="165" y="320" width="35" height="20" as="geometry" />
        </mxCell>
        <mxCell id="fWEaLsY42Vd3MQqkWYfv-56" value="docks" style="html=1;" parent="1" vertex="1">
          <mxGeometry x="230" y="320" width="30" height="20" as="geometry" />
        </mxCell>
        <mxCell id="fWEaLsY42Vd3MQqkWYfv-57" value="" style="rounded=0;orthogonalLoop=1;jettySize=auto;html=1;endArrow=none;endFill=0;exitX=1;exitY=0.5;exitDx=0;exitDy=0;" parent="1" source="fWEaLsY42Vd3MQqkWYfv-40" edge="1">
          <mxGeometry relative="1" as="geometry">
            <mxPoint x="88" y="379" as="sourcePoint" />
            <mxPoint x="110" y="331" as="targetPoint" />
            <Array as="points">
              <mxPoint x="110" y="260" />
              <mxPoint x="110" y="331" />
            </Array>
          </mxGeometry>
        </mxCell>
        <mxCell id="fWEaLsY42Vd3MQqkWYfv-58" value="" style="ellipse;whiteSpace=wrap;html=1;fontFamily=Helvetica;fontSize=12;fontColor=#000000;align=center;strokeColor=#000000;fillColor=#ffffff;points=[];aspect=fixed;resizable=0;" parent="1" vertex="1">
          <mxGeometry x="135" y="325" width="10" height="10" as="geometry" />
        </mxCell>
        <mxCell id="fWEaLsY42Vd3MQqkWYfv-59" value="" style="rounded=0;orthogonalLoop=1;jettySize=auto;html=1;endArrow=halfCircle;endFill=0;endSize=6;strokeWidth=1;" parent="1" target="fWEaLsY42Vd3MQqkWYfv-58" edge="1">
          <mxGeometry relative="1" as="geometry">
            <mxPoint x="110" y="330" as="sourcePoint" />
            <mxPoint x="140" y="330" as="targetPoint" />
            <Array as="points" />
          </mxGeometry>
        </mxCell>
        <mxCell id="fWEaLsY42Vd3MQqkWYfv-62" value="connV" style="html=1;" parent="1" vertex="1">
          <mxGeometry x="50" y="250" width="40" height="20" as="geometry" />
        </mxCell>
        <mxCell id="fWEaLsY42Vd3MQqkWYfv-71" value="connV" style="html=1;" parent="1" vertex="1">
          <mxGeometry x="659.37" y="260" width="50" height="20" as="geometry" />
        </mxCell>
        <mxCell id="fWEaLsY42Vd3MQqkWYfv-78" value="v3 : vehicle" style="html=1;align=center;verticalAlign=top;rounded=1;absoluteArcSize=1;arcSize=10;dashed=0;" parent="1" vertex="1">
          <mxGeometry x="659.37" y="250" width="95" height="50" as="geometry" />
        </mxCell>
        <mxCell id="fWEaLsY42Vd3MQqkWYfv-79" value="connV" style="html=1;" parent="1" vertex="1">
          <mxGeometry x="659.37" y="270" width="35" height="20" as="geometry" />
        </mxCell>
        <mxCell id="fWEaLsY42Vd3MQqkWYfv-80" value="docks" style="html=1;" parent="1" vertex="1">
          <mxGeometry x="724.37" y="270" width="30" height="20" as="geometry" />
        </mxCell>
        <mxCell id="fWEaLsY42Vd3MQqkWYfv-86" value="" style="shape=link;html=1;" parent="1" edge="1">
          <mxGeometry width="100" relative="1" as="geometry">
            <mxPoint x="380" y="20" as="sourcePoint" />
            <mxPoint x="380" y="670" as="targetPoint" />
          </mxGeometry>
        </mxCell>
        <mxCell id="fWEaLsY42Vd3MQqkWYfv-87" value="connV" style="html=1;" parent="1" vertex="1">
          <mxGeometry x="785" y="260" width="50" height="20" as="geometry" />
        </mxCell>
        <mxCell id="fWEaLsY42Vd3MQqkWYfv-88" value="v2 : vehicle" style="html=1;align=center;verticalAlign=top;rounded=1;absoluteArcSize=1;arcSize=10;dashed=0;" parent="1" vertex="1">
          <mxGeometry x="785" y="250" width="95" height="50" as="geometry" />
        </mxCell>
        <mxCell id="fWEaLsY42Vd3MQqkWYfv-89" value="connV" style="html=1;" parent="1" vertex="1">
          <mxGeometry x="785" y="270" width="35" height="20" as="geometry" />
        </mxCell>
        <mxCell id="fWEaLsY42Vd3MQqkWYfv-90" value="" style="rounded=0;orthogonalLoop=1;jettySize=auto;html=1;endArrow=none;endFill=0;exitX=0;exitY=0.5;exitDx=0;exitDy=0;" parent="1" target="fWEaLsY42Vd3MQqkWYfv-92" edge="1" source="fWEaLsY42Vd3MQqkWYfv-89">
          <mxGeometry relative="1" as="geometry">
            <mxPoint x="754.37" y="280" as="sourcePoint" />
          </mxGeometry>
        </mxCell>
        <mxCell id="fWEaLsY42Vd3MQqkWYfv-91" value="" style="rounded=0;orthogonalLoop=1;jettySize=auto;html=1;endArrow=halfCircle;endFill=0;endSize=6;strokeWidth=1;exitX=1;exitY=0.5;exitDx=0;exitDy=0;" parent="1" source="fWEaLsY42Vd3MQqkWYfv-223" edge="1">
          <mxGeometry relative="1" as="geometry">
            <mxPoint x="760" y="320" as="sourcePoint" />
            <mxPoint x="770" y="280" as="targetPoint" />
            <Array as="points">
              <mxPoint x="770" y="280" />
            </Array>
          </mxGeometry>
        </mxCell>
        <mxCell id="fWEaLsY42Vd3MQqkWYfv-92" value="" style="ellipse;whiteSpace=wrap;html=1;fontFamily=Helvetica;fontSize=12;fontColor=#000000;align=center;strokeColor=#000000;fillColor=#ffffff;points=[];aspect=fixed;resizable=0;" parent="1" vertex="1">
          <mxGeometry x="765" y="275" width="10" height="10" as="geometry" />
        </mxCell>
        <mxCell id="fWEaLsY42Vd3MQqkWYfv-95" value="docks" style="html=1;" parent="1" vertex="1">
          <mxGeometry x="850" y="270" width="30" height="20" as="geometry" />
        </mxCell>
        <mxCell id="fWEaLsY42Vd3MQqkWYfv-98" value="leader" style="html=1;" parent="1" vertex="1">
          <mxGeometry x="584.37" y="270" width="35" height="20" as="geometry" />
        </mxCell>
        <mxCell id="fWEaLsY42Vd3MQqkWYfv-99" value="" style="rounded=0;orthogonalLoop=1;jettySize=auto;html=1;endArrow=none;endFill=0;exitX=0;exitY=0.5;exitDx=0;exitDy=0;" parent="1" source="fWEaLsY42Vd3MQqkWYfv-79" edge="1">
          <mxGeometry relative="1" as="geometry">
            <mxPoint x="680" y="350" as="sourcePoint" />
            <mxPoint x="639.37" y="280" as="targetPoint" />
            <Array as="points" />
          </mxGeometry>
        </mxCell>
        <mxCell id="fWEaLsY42Vd3MQqkWYfv-100" value="" style="rounded=0;orthogonalLoop=1;jettySize=auto;html=1;endArrow=halfCircle;endFill=0;endSize=6;strokeWidth=1;" parent="1" edge="1">
          <mxGeometry relative="1" as="geometry">
            <mxPoint x="642.37" y="280" as="sourcePoint" />
            <mxPoint x="642.37" y="280" as="targetPoint" />
          </mxGeometry>
        </mxCell>
        <mxCell id="fWEaLsY42Vd3MQqkWYfv-101" value="" style="ellipse;whiteSpace=wrap;html=1;fontFamily=Helvetica;fontSize=12;fontColor=#000000;align=center;strokeColor=#000000;fillColor=#ffffff;points=[];aspect=fixed;resizable=0;" parent="1" vertex="1">
          <mxGeometry x="630" y="275" width="10" height="10" as="geometry" />
        </mxCell>
        <mxCell id="fWEaLsY42Vd3MQqkWYfv-102" value="" style="rounded=0;orthogonalLoop=1;jettySize=auto;html=1;endArrow=halfCircle;endFill=0;endSize=6;strokeWidth=1;exitX=1;exitY=0.5;exitDx=0;exitDy=0;" parent="1" edge="1" source="fWEaLsY42Vd3MQqkWYfv-98">
          <mxGeometry relative="1" as="geometry">
            <mxPoint x="659.37" y="280" as="sourcePoint" />
            <mxPoint x="635" y="280" as="targetPoint" />
            <Array as="points" />
          </mxGeometry>
        </mxCell>
        <mxCell id="fWEaLsY42Vd3MQqkWYfv-153" value="&lt;font style=&quot;font-size: 14px&quot;&gt;Event :v2.join(v3)&lt;/font&gt;" style="text;html=1;align=center;verticalAlign=middle;resizable=0;points=[];autosize=1;" parent="1" vertex="1">
          <mxGeometry y="100" width="120" height="20" as="geometry" />
        </mxCell>
        <mxCell id="fWEaLsY42Vd3MQqkWYfv-154" value="" style="endArrow=open;endFill=1;endSize=12;html=1;strokeWidth=3;" parent="1" edge="1">
          <mxGeometry width="160" relative="1" as="geometry">
            <mxPoint x="120" y="112" as="sourcePoint" />
            <mxPoint x="180" y="112" as="targetPoint" />
          </mxGeometry>
        </mxCell>
        <mxCell id="fWEaLsY42Vd3MQqkWYfv-155" value="&lt;font style=&quot;font-size: 14px&quot;&gt;SystemLog : v2.acceptJoin(v3)&lt;/font&gt;" style="text;html=1;align=center;verticalAlign=middle;resizable=0;points=[];autosize=1;" parent="1" vertex="1">
          <mxGeometry x="172.5" y="100" width="210" height="20" as="geometry" />
        </mxCell>
        <mxCell id="fWEaLsY42Vd3MQqkWYfv-156" value="&lt;font style=&quot;font-size: 14px&quot;&gt;Event :v3.forceQuit(p)&lt;/font&gt;" style="text;html=1;align=center;verticalAlign=middle;resizable=0;points=[];autosize=1;" parent="1" vertex="1">
          <mxGeometry x="390" y="100" width="150" height="20" as="geometry" />
        </mxCell>
        <mxCell id="fWEaLsY42Vd3MQqkWYfv-157" value="" style="endArrow=open;endFill=1;endSize=12;html=1;strokeWidth=3;" parent="1" edge="1">
          <mxGeometry width="160" relative="1" as="geometry">
            <mxPoint x="545" y="110" as="sourcePoint" />
            <mxPoint x="615" y="110" as="targetPoint" />
          </mxGeometry>
        </mxCell>
        <mxCell id="fWEaLsY42Vd3MQqkWYfv-158" value="&lt;font style=&quot;font-size: 14px&quot;&gt;SystemLog : v3.acceptQuit(p)&lt;/font&gt;" style="text;html=1;align=center;verticalAlign=middle;resizable=0;points=[];autosize=1;" parent="1" vertex="1">
          <mxGeometry x="610" y="100" width="200" height="20" as="geometry" />
        </mxCell>
        <mxCell id="fWEaLsY42Vd3MQqkWYfv-159" value="&lt;font style=&quot;font-size: 14px&quot;&gt;Event :v1.join(v2)&lt;/font&gt;" style="text;html=1;align=center;verticalAlign=middle;resizable=0;points=[];autosize=1;" parent="1" vertex="1">
          <mxGeometry x="-5" y="430" width="120" height="20" as="geometry" />
        </mxCell>
        <mxCell id="fWEaLsY42Vd3MQqkWYfv-160" value="" style="endArrow=open;endFill=1;endSize=12;html=1;entryX=-0.012;entryY=0.567;entryDx=0;entryDy=0;entryPerimeter=0;strokeWidth=3;" parent="1" target="fWEaLsY42Vd3MQqkWYfv-161" edge="1">
          <mxGeometry width="160" relative="1" as="geometry">
            <mxPoint x="120" y="441" as="sourcePoint" />
            <mxPoint x="197.5" y="440" as="targetPoint" />
          </mxGeometry>
        </mxCell>
        <mxCell id="fWEaLsY42Vd3MQqkWYfv-161" value="&lt;font style=&quot;font-size: 14px&quot;&gt;SystemLog : v1.acceptJoin(v2)&lt;/font&gt;" style="text;html=1;align=center;verticalAlign=middle;resizable=0;points=[];autosize=1;" parent="1" vertex="1">
          <mxGeometry x="172.5" y="430" width="210" height="20" as="geometry" />
        </mxCell>
        <mxCell id="fWEaLsY42Vd3MQqkWYfv-162" value="&lt;font style=&quot;font-size: 14px&quot;&gt;Event : Null&lt;/font&gt;" style="text;html=1;align=center;verticalAlign=middle;resizable=0;points=[];autosize=1;" parent="1" vertex="1">
          <mxGeometry x="410" y="430" width="90" height="20" as="geometry" />
        </mxCell>
        <mxCell id="fWEaLsY42Vd3MQqkWYfv-163" value="" style="endArrow=open;endFill=1;endSize=12;html=1;strokeWidth=3;" parent="1" edge="1">
          <mxGeometry width="160" relative="1" as="geometry">
            <mxPoint x="540" y="440" as="sourcePoint" />
            <mxPoint x="630" y="440" as="targetPoint" />
          </mxGeometry>
        </mxCell>
        <mxCell id="fWEaLsY42Vd3MQqkWYfv-164" value="&lt;font style=&quot;font-size: 14px&quot;&gt;SystemLog : run&lt;/font&gt;" style="text;html=1;align=center;verticalAlign=middle;resizable=0;points=[];autosize=1;" parent="1" vertex="1">
          <mxGeometry x="665" y="430" width="120" height="20" as="geometry" />
        </mxCell>
        <mxCell id="fWEaLsY42Vd3MQqkWYfv-166" value="" style="shape=link;html=1;" parent="1" edge="1">
          <mxGeometry width="100" relative="1" as="geometry">
            <mxPoint y="380" as="sourcePoint" />
            <mxPoint x="910" y="380" as="targetPoint" />
          </mxGeometry>
        </mxCell>
        <mxCell id="fWEaLsY42Vd3MQqkWYfv-169" value="1" style="ellipse;fillColor=#ffffff;strokeColor=#000000;fontSize=18;" parent="1" vertex="1">
          <mxGeometry x="160" y="50" width="30" height="30" as="geometry" />
        </mxCell>
        <mxCell id="fWEaLsY42Vd3MQqkWYfv-170" value="2" style="ellipse;fillColor=#ffffff;strokeColor=#000000;fontSize=18;" parent="1" vertex="1">
          <mxGeometry x="615" y="50" width="30" height="30" as="geometry" />
        </mxCell>
        <mxCell id="fWEaLsY42Vd3MQqkWYfv-171" value="3" style="ellipse;fillColor=#ffffff;strokeColor=#000000;fontSize=18;" parent="1" vertex="1">
          <mxGeometry x="160" y="390" width="30" height="30" as="geometry" />
        </mxCell>
        <mxCell id="fWEaLsY42Vd3MQqkWYfv-172" value="4" style="ellipse;fillColor=#ffffff;strokeColor=#000000;fontSize=18;" parent="1" vertex="1">
          <mxGeometry x="615" y="390" width="30" height="30" as="geometry" />
        </mxCell>
        <mxCell id="fWEaLsY42Vd3MQqkWYfv-173" value="External Events :" style="text;html=1;align=center;verticalAlign=middle;resizable=0;points=[];autosize=1;fontSize=18;" parent="1" vertex="1">
          <mxGeometry x="40" y="790" width="150" height="30" as="geometry" />
        </mxCell>
        <mxCell id="fWEaLsY42Vd3MQqkWYfv-174" value="Reconfiguration&lt;br&gt;Path" style="text;html=1;align=center;verticalAlign=middle;resizable=0;points=[];autosize=1;fontSize=18;" parent="1" vertex="1">
          <mxGeometry x="40" y="895" width="140" height="50" as="geometry" />
        </mxCell>
        <mxCell id="fWEaLsY42Vd3MQqkWYfv-178" value="" style="endArrow=open;startArrow=circle;endFill=0;startFill=1;endSize=8;html=1;strokeWidth=4;fontSize=18;" parent="1" edge="1">
          <mxGeometry width="160" relative="1" as="geometry">
            <mxPoint x="230" y="919.17" as="sourcePoint" />
            <mxPoint x="350" y="919" as="targetPoint" />
          </mxGeometry>
        </mxCell>
        <mxCell id="fWEaLsY42Vd3MQqkWYfv-179" value="C0" style="text;html=1;align=center;verticalAlign=middle;resizable=0;points=[];autosize=1;fontSize=18;" parent="1" vertex="1">
          <mxGeometry x="225" y="940" width="40" height="30" as="geometry" />
        </mxCell>
        <mxCell id="fWEaLsY42Vd3MQqkWYfv-180" value="" style="endArrow=open;startArrow=circle;endFill=0;startFill=1;endSize=8;html=1;strokeWidth=4;fontSize=18;dashed=1;" parent="1" edge="1">
          <mxGeometry width="160" relative="1" as="geometry">
            <mxPoint x="484" y="919.34" as="sourcePoint" />
            <mxPoint x="604" y="919.17" as="targetPoint" />
          </mxGeometry>
        </mxCell>
        <mxCell id="fWEaLsY42Vd3MQqkWYfv-181" value="" style="endArrow=open;startArrow=circle;endFill=0;startFill=1;endSize=8;html=1;strokeWidth=4;fontSize=18;" parent="1" edge="1">
          <mxGeometry width="160" relative="1" as="geometry">
            <mxPoint x="610" y="919.34" as="sourcePoint" />
            <mxPoint x="730" y="919.17" as="targetPoint" />
          </mxGeometry>
        </mxCell>
        <mxCell id="fWEaLsY42Vd3MQqkWYfv-182" value="" style="endArrow=open;startArrow=circle;endFill=0;startFill=1;endSize=8;html=1;strokeWidth=4;fontSize=18;" parent="1" edge="1">
          <mxGeometry width="160" relative="1" as="geometry">
            <mxPoint x="737.5" y="919.34" as="sourcePoint" />
            <mxPoint x="857.5" y="919.17" as="targetPoint" />
          </mxGeometry>
        </mxCell>
        <mxCell id="fWEaLsY42Vd3MQqkWYfv-187" value="" style="endArrow=none;startArrow=circle;endFill=0;startFill=1;endSize=8;html=1;strokeWidth=4;fontSize=18;" parent="1" edge="1">
          <mxGeometry width="160" relative="1" as="geometry">
            <mxPoint x="860" y="919.4200000000002" as="sourcePoint" />
            <mxPoint x="880" y="919.08" as="targetPoint" />
          </mxGeometry>
        </mxCell>
        <mxCell id="fWEaLsY42Vd3MQqkWYfv-189" value="Ci" style="text;html=1;align=center;verticalAlign=middle;resizable=0;points=[];autosize=1;fontSize=18;" parent="1" vertex="1">
          <mxGeometry x="605" y="940" width="30" height="30" as="geometry" />
        </mxCell>
        <mxCell id="fWEaLsY42Vd3MQqkWYfv-190" value="Ci+1" style="text;html=1;align=center;verticalAlign=middle;resizable=0;points=[];autosize=1;fontSize=18;" parent="1" vertex="1">
          <mxGeometry x="725" y="940" width="50" height="30" as="geometry" />
        </mxCell>
        <mxCell id="fWEaLsY42Vd3MQqkWYfv-191" value="&lt;div&gt;Ci+2&lt;/div&gt;" style="text;html=1;align=center;verticalAlign=middle;resizable=0;points=[];autosize=1;fontSize=18;" parent="1" vertex="1">
          <mxGeometry x="845" y="940" width="50" height="30" as="geometry" />
        </mxCell>
        <mxCell id="fWEaLsY42Vd3MQqkWYfv-192" value="run" style="text;html=1;align=center;verticalAlign=middle;resizable=0;points=[];autosize=1;fontSize=18;" parent="1" vertex="1">
          <mxGeometry x="280" y="880" width="40" height="30" as="geometry" />
        </mxCell>
        <mxCell id="fWEaLsY42Vd3MQqkWYfv-197" value="" style="endArrow=classic;html=1;strokeWidth=4;fontSize=18;" parent="1" edge="1">
          <mxGeometry width="50" height="50" relative="1" as="geometry">
            <mxPoint x="420" y="820" as="sourcePoint" />
            <mxPoint x="370" y="900" as="targetPoint" />
            <Array as="points">
              <mxPoint x="420" y="820" />
              <mxPoint x="380" y="860" />
              <mxPoint x="410" y="860" />
            </Array>
          </mxGeometry>
        </mxCell>
        <mxCell id="fWEaLsY42Vd3MQqkWYfv-198" value="" style="endArrow=classic;html=1;strokeWidth=4;fontSize=18;" parent="1" edge="1">
          <mxGeometry width="50" height="50" relative="1" as="geometry">
            <mxPoint x="550" y="820" as="sourcePoint" />
            <mxPoint x="500" y="900" as="targetPoint" />
            <Array as="points">
              <mxPoint x="550" y="820" />
              <mxPoint x="510" y="860" />
              <mxPoint x="540" y="860" />
            </Array>
          </mxGeometry>
        </mxCell>
        <mxCell id="fWEaLsY42Vd3MQqkWYfv-199" value="" style="endArrow=classic;html=1;strokeWidth=4;fontSize=18;" parent="1" edge="1">
          <mxGeometry width="50" height="50" relative="1" as="geometry">
            <mxPoint x="670" y="820" as="sourcePoint" />
            <mxPoint x="620" y="900" as="targetPoint" />
            <Array as="points">
              <mxPoint x="670" y="820" />
              <mxPoint x="630" y="860" />
              <mxPoint x="660" y="860" />
            </Array>
          </mxGeometry>
        </mxCell>
        <mxCell id="fWEaLsY42Vd3MQqkWYfv-200" value="v2.join(v3)" style="text;html=1;align=center;verticalAlign=middle;resizable=0;points=[];autosize=1;fontSize=18;" parent="1" vertex="1">
          <mxGeometry x="370" y="785" width="100" height="30" as="geometry" />
        </mxCell>
        <mxCell id="fWEaLsY42Vd3MQqkWYfv-201" value="v3.forceQuit(p)" style="text;html=1;align=center;verticalAlign=middle;resizable=0;points=[];autosize=1;fontSize=18;" parent="1" vertex="1">
          <mxGeometry x="485" y="785" width="130" height="30" as="geometry" />
        </mxCell>
        <mxCell id="fWEaLsY42Vd3MQqkWYfv-202" value="v1.join(v2)" style="text;html=1;align=center;verticalAlign=middle;resizable=0;points=[];autosize=1;fontSize=18;" parent="1" vertex="1">
          <mxGeometry x="625" y="785" width="100" height="30" as="geometry" />
        </mxCell>
        <mxCell id="fWEaLsY42Vd3MQqkWYfv-203" value="" style="endArrow=open;startArrow=circle;endFill=0;startFill=1;endSize=8;html=1;strokeWidth=4;fontSize=18;" parent="1" edge="1">
          <mxGeometry width="160" relative="1" as="geometry">
            <mxPoint x="354" y="919.34" as="sourcePoint" />
            <mxPoint x="474" y="919.17" as="targetPoint" />
          </mxGeometry>
        </mxCell>
        <mxCell id="fWEaLsY42Vd3MQqkWYfv-204" value="C1" style="text;html=1;align=center;verticalAlign=middle;resizable=0;points=[];autosize=1;fontSize=18;" parent="1" vertex="1">
          <mxGeometry x="342.5" y="940" width="40" height="30" as="geometry" />
        </mxCell>
        <mxCell id="fWEaLsY42Vd3MQqkWYfv-205" value="C2" style="text;html=1;align=center;verticalAlign=middle;resizable=0;points=[];autosize=1;fontSize=18;" parent="1" vertex="1">
          <mxGeometry x="480" y="940" width="40" height="30" as="geometry" />
        </mxCell>
        <mxCell id="fWEaLsY42Vd3MQqkWYfv-206" value="run" style="text;html=1;align=center;verticalAlign=middle;resizable=0;points=[];autosize=1;fontSize=18;" parent="1" vertex="1">
          <mxGeometry x="665" y="880" width="40" height="30" as="geometry" />
        </mxCell>
        <mxCell id="fWEaLsY42Vd3MQqkWYfv-207" value="run" style="text;html=1;align=center;verticalAlign=middle;resizable=0;points=[];autosize=1;fontSize=18;" parent="1" vertex="1">
          <mxGeometry x="785" y="880" width="40" height="30" as="geometry" />
        </mxCell>
        <mxCell id="fWEaLsY42Vd3MQqkWYfv-208" value="4" style="ellipse;fillColor=#ffffff;strokeColor=#000000;fontSize=18;" parent="1" vertex="1">
          <mxGeometry x="797" y="730" width="30" height="30" as="geometry" />
        </mxCell>
        <mxCell id="fWEaLsY42Vd3MQqkWYfv-209" value="3" style="ellipse;fillColor=#ffffff;strokeColor=#000000;fontSize=18;" parent="1" vertex="1">
          <mxGeometry x="665" y="730" width="30" height="30" as="geometry" />
        </mxCell>
        <mxCell id="fWEaLsY42Vd3MQqkWYfv-211" value="2" style="ellipse;fillColor=#ffffff;strokeColor=#000000;fontSize=18;" parent="1" vertex="1">
          <mxGeometry x="545" y="730" width="30" height="30" as="geometry" />
        </mxCell>
        <mxCell id="fWEaLsY42Vd3MQqkWYfv-212" value="1" style="ellipse;fillColor=#ffffff;strokeColor=#000000;fontSize=18;" parent="1" vertex="1">
          <mxGeometry x="420" y="730" width="30" height="30" as="geometry" />
        </mxCell>
        <mxCell id="fWEaLsY42Vd3MQqkWYfv-213" value="moving" style="html=1;" parent="1" vertex="1">
          <mxGeometry x="50" y="250" width="40" height="20" as="geometry" />
        </mxCell>
        <mxCell id="fWEaLsY42Vd3MQqkWYfv-222" value="next" style="html=1;" parent="1" vertex="1">
          <mxGeometry x="230" y="320" width="30" height="20" as="geometry" />
        </mxCell>
        <mxCell id="fWEaLsY42Vd3MQqkWYfv-223" value="next" style="html=1;" parent="1" vertex="1">
          <mxGeometry x="724.37" y="270" width="30" height="20" as="geometry" />
        </mxCell>
        <mxCell id="fWEaLsY42Vd3MQqkWYfv-224" value="next" style="html=1;" parent="1" vertex="1">
          <mxGeometry x="850" y="270" width="30" height="20" as="geometry" />
        </mxCell>
        <mxCell id="dE4XsuyTtmp6b2fEfUUe-2" value="" style="rounded=0;orthogonalLoop=1;jettySize=auto;html=1;endArrow=none;endFill=0;exitX=0;exitY=0.5;exitDx=0;exitDy=0;" edge="1" parent="1" source="fWEaLsY42Vd3MQqkWYfv-55">
          <mxGeometry relative="1" as="geometry">
            <mxPoint x="175" y="269.99999999999994" as="sourcePoint" />
            <mxPoint x="145" y="330" as="targetPoint" />
          </mxGeometry>
        </mxCell>
        <mxCell id="dE4XsuyTtmp6b2fEfUUe-9" value="" style="ellipse;whiteSpace=wrap;html=1;fontFamily=Helvetica;fontSize=12;fontColor=#000000;align=center;strokeColor=#000000;fillColor=#ffffff;points=[];aspect=fixed;resizable=0;" vertex="1" parent="1">
          <mxGeometry x="135" y="195" width="10" height="10" as="geometry" />
        </mxCell>
        <mxCell id="dE4XsuyTtmp6b2fEfUUe-10" value="" style="rounded=0;orthogonalLoop=1;jettySize=auto;html=1;endArrow=halfCircle;endFill=0;endSize=6;strokeWidth=1;" edge="1" parent="1" target="dE4XsuyTtmp6b2fEfUUe-9">
          <mxGeometry relative="1" as="geometry">
            <mxPoint x="110" y="200" as="sourcePoint" />
            <mxPoint x="140" y="190" as="targetPoint" />
            <Array as="points" />
          </mxGeometry>
        </mxCell>
        <mxCell id="dE4XsuyTtmp6b2fEfUUe-11" value="" style="rounded=0;orthogonalLoop=1;jettySize=auto;html=1;endArrow=none;endFill=0;exitX=0;exitY=0.5;exitDx=0;exitDy=0;" edge="1" parent="1">
          <mxGeometry relative="1" as="geometry">
            <mxPoint x="165" y="199.99999999999994" as="sourcePoint" />
            <mxPoint x="145" y="199.99999999999994" as="targetPoint" />
          </mxGeometry>
        </mxCell>
        <mxCell id="dE4XsuyTtmp6b2fEfUUe-12" value="&lt;div align=&quot;left&quot;&gt;r : road&lt;/div&gt;" style="html=1;align=left;verticalAlign=top;rounded=1;absoluteArcSize=1;arcSize=10;dashed=0;" vertex="1" parent="1">
          <mxGeometry x="30" y="555" width="90" height="40" as="geometry" />
        </mxCell>
        <mxCell id="dE4XsuyTtmp6b2fEfUUe-13" value="" style="rounded=0;orthogonalLoop=1;jettySize=auto;html=1;endArrow=none;endFill=0;exitX=1;exitY=0.5;exitDx=0;exitDy=0;" edge="1" parent="1" source="dE4XsuyTtmp6b2fEfUUe-12">
          <mxGeometry relative="1" as="geometry">
            <mxPoint x="255" y="690" as="sourcePoint" />
            <mxPoint x="140" y="515" as="targetPoint" />
            <Array as="points">
              <mxPoint x="140" y="575" />
              <mxPoint x="140" y="515" />
            </Array>
          </mxGeometry>
        </mxCell>
        <mxCell id="dE4XsuyTtmp6b2fEfUUe-14" value="v1 :&amp;nbsp; vehicle" style="html=1;align=center;verticalAlign=top;rounded=1;absoluteArcSize=1;arcSize=10;dashed=0;" vertex="1" parent="1">
          <mxGeometry x="195" y="485" width="95" height="50" as="geometry" />
        </mxCell>
        <mxCell id="dE4XsuyTtmp6b2fEfUUe-15" value="connV" style="html=1;" vertex="1" parent="1">
          <mxGeometry x="195" y="505" width="35" height="20" as="geometry" />
        </mxCell>
        <mxCell id="dE4XsuyTtmp6b2fEfUUe-16" value="next" style="html=1;" vertex="1" parent="1">
          <mxGeometry x="260" y="505" width="30" height="20" as="geometry" />
        </mxCell>
        <mxCell id="dE4XsuyTtmp6b2fEfUUe-17" value="connV" style="html=1;" vertex="1" parent="1">
          <mxGeometry x="195" y="625" width="50" height="20" as="geometry" />
        </mxCell>
        <mxCell id="dE4XsuyTtmp6b2fEfUUe-18" value="&lt;div align=&quot;right&quot;&gt;&amp;nbsp; v3 : vehicle&lt;br&gt;&lt;/div&gt;" style="html=1;align=center;verticalAlign=top;rounded=1;absoluteArcSize=1;arcSize=10;dashed=0;" vertex="1" parent="1">
          <mxGeometry x="195" y="545" width="95" height="50" as="geometry" />
        </mxCell>
        <mxCell id="dE4XsuyTtmp6b2fEfUUe-19" value="connV" style="html=1;" vertex="1" parent="1">
          <mxGeometry x="195" y="565" width="35" height="20" as="geometry" />
        </mxCell>
        <mxCell id="dE4XsuyTtmp6b2fEfUUe-20" value="next" style="html=1;" vertex="1" parent="1">
          <mxGeometry x="260" y="565" width="30" height="20" as="geometry" />
        </mxCell>
        <mxCell id="dE4XsuyTtmp6b2fEfUUe-21" value="" style="rounded=0;orthogonalLoop=1;jettySize=auto;html=1;endArrow=none;endFill=0;exitX=0;exitY=0.5;exitDx=0;exitDy=0;" edge="1" parent="1" source="dE4XsuyTtmp6b2fEfUUe-19" target="dE4XsuyTtmp6b2fEfUUe-23">
          <mxGeometry relative="1" as="geometry">
            <mxPoint x="175" y="560" as="sourcePoint" />
          </mxGeometry>
        </mxCell>
        <mxCell id="dE4XsuyTtmp6b2fEfUUe-22" value="" style="rounded=0;orthogonalLoop=1;jettySize=auto;html=1;endArrow=halfCircle;endFill=0;endSize=6;strokeWidth=1;entryX=0.06;entryY=0.52;entryDx=0;entryDy=0;entryPerimeter=0;" edge="1" parent="1" target="dE4XsuyTtmp6b2fEfUUe-23">
          <mxGeometry relative="1" as="geometry">
            <mxPoint x="135" y="574.8399999999999" as="sourcePoint" />
            <mxPoint x="155" y="574.8399999999999" as="targetPoint" />
          </mxGeometry>
        </mxCell>
        <mxCell id="dE4XsuyTtmp6b2fEfUUe-23" value="" style="ellipse;whiteSpace=wrap;html=1;fontFamily=Helvetica;fontSize=12;fontColor=#000000;align=center;strokeColor=#000000;fillColor=#ffffff;points=[];aspect=fixed;resizable=0;" vertex="1" parent="1">
          <mxGeometry x="165" y="570" width="10" height="10" as="geometry" />
        </mxCell>
        <mxCell id="dE4XsuyTtmp6b2fEfUUe-24" value="v2 : vehicle" style="html=1;align=center;verticalAlign=top;rounded=1;absoluteArcSize=1;arcSize=10;dashed=0;" vertex="1" parent="1">
          <mxGeometry x="195" y="615" width="95" height="50" as="geometry" />
        </mxCell>
        <mxCell id="dE4XsuyTtmp6b2fEfUUe-25" value="connV" style="html=1;" vertex="1" parent="1">
          <mxGeometry x="195" y="635" width="35" height="20" as="geometry" />
        </mxCell>
        <mxCell id="dE4XsuyTtmp6b2fEfUUe-26" value="docks" style="html=1;" vertex="1" parent="1">
          <mxGeometry x="260" y="635" width="30" height="20" as="geometry" />
        </mxCell>
        <mxCell id="dE4XsuyTtmp6b2fEfUUe-27" value="" style="rounded=0;orthogonalLoop=1;jettySize=auto;html=1;endArrow=none;endFill=0;exitX=1;exitY=0.5;exitDx=0;exitDy=0;" edge="1" parent="1" source="dE4XsuyTtmp6b2fEfUUe-12">
          <mxGeometry relative="1" as="geometry">
            <mxPoint x="118" y="694" as="sourcePoint" />
            <mxPoint x="140" y="646" as="targetPoint" />
            <Array as="points">
              <mxPoint x="140" y="575" />
              <mxPoint x="140" y="646" />
            </Array>
          </mxGeometry>
        </mxCell>
        <mxCell id="dE4XsuyTtmp6b2fEfUUe-28" value="" style="ellipse;whiteSpace=wrap;html=1;fontFamily=Helvetica;fontSize=12;fontColor=#000000;align=center;strokeColor=#000000;fillColor=#ffffff;points=[];aspect=fixed;resizable=0;" vertex="1" parent="1">
          <mxGeometry x="165" y="640" width="10" height="10" as="geometry" />
        </mxCell>
        <mxCell id="dE4XsuyTtmp6b2fEfUUe-29" value="" style="rounded=0;orthogonalLoop=1;jettySize=auto;html=1;endArrow=halfCircle;endFill=0;endSize=6;strokeWidth=1;" edge="1" parent="1" target="dE4XsuyTtmp6b2fEfUUe-28">
          <mxGeometry relative="1" as="geometry">
            <mxPoint x="140" y="645" as="sourcePoint" />
            <mxPoint x="170" y="645" as="targetPoint" />
            <Array as="points" />
          </mxGeometry>
        </mxCell>
        <mxCell id="dE4XsuyTtmp6b2fEfUUe-30" value="connV" style="html=1;" vertex="1" parent="1">
          <mxGeometry x="80" y="565" width="40" height="20" as="geometry" />
        </mxCell>
        <mxCell id="dE4XsuyTtmp6b2fEfUUe-31" value="moving" style="html=1;" vertex="1" parent="1">
          <mxGeometry x="80" y="565" width="40" height="20" as="geometry" />
        </mxCell>
        <mxCell id="dE4XsuyTtmp6b2fEfUUe-32" value="next" style="html=1;" vertex="1" parent="1">
          <mxGeometry x="260" y="635" width="30" height="20" as="geometry" />
        </mxCell>
        <mxCell id="dE4XsuyTtmp6b2fEfUUe-33" value="" style="rounded=0;orthogonalLoop=1;jettySize=auto;html=1;endArrow=none;endFill=0;exitX=0;exitY=0.5;exitDx=0;exitDy=0;" edge="1" parent="1" source="dE4XsuyTtmp6b2fEfUUe-25">
          <mxGeometry relative="1" as="geometry">
            <mxPoint x="205" y="585" as="sourcePoint" />
            <mxPoint x="175" y="645" as="targetPoint" />
          </mxGeometry>
        </mxCell>
        <mxCell id="dE4XsuyTtmp6b2fEfUUe-34" value="" style="ellipse;whiteSpace=wrap;html=1;fontFamily=Helvetica;fontSize=12;fontColor=#000000;align=center;strokeColor=#000000;fillColor=#ffffff;points=[];aspect=fixed;resizable=0;" vertex="1" parent="1">
          <mxGeometry x="165" y="510" width="10" height="10" as="geometry" />
        </mxCell>
        <mxCell id="dE4XsuyTtmp6b2fEfUUe-35" value="" style="rounded=0;orthogonalLoop=1;jettySize=auto;html=1;endArrow=halfCircle;endFill=0;endSize=6;strokeWidth=1;" edge="1" parent="1" target="dE4XsuyTtmp6b2fEfUUe-34">
          <mxGeometry relative="1" as="geometry">
            <mxPoint x="140" y="515" as="sourcePoint" />
            <mxPoint x="170" y="505" as="targetPoint" />
            <Array as="points" />
          </mxGeometry>
        </mxCell>
        <mxCell id="dE4XsuyTtmp6b2fEfUUe-36" value="" style="rounded=0;orthogonalLoop=1;jettySize=auto;html=1;endArrow=none;endFill=0;exitX=0;exitY=0.5;exitDx=0;exitDy=0;" edge="1" parent="1">
          <mxGeometry relative="1" as="geometry">
            <mxPoint x="195" y="515" as="sourcePoint" />
            <mxPoint x="175" y="515" as="targetPoint" />
          </mxGeometry>
        </mxCell>
        <mxCell id="dE4XsuyTtmp6b2fEfUUe-37" value="&lt;div align=&quot;left&quot;&gt;r : road&lt;/div&gt;" style="html=1;align=left;verticalAlign=top;rounded=1;absoluteArcSize=1;arcSize=10;dashed=0;" vertex="1" parent="1">
          <mxGeometry x="420" y="225" width="90" height="40" as="geometry" />
        </mxCell>
        <mxCell id="dE4XsuyTtmp6b2fEfUUe-38" value="" style="rounded=0;orthogonalLoop=1;jettySize=auto;html=1;endArrow=none;endFill=0;exitX=1;exitY=0.5;exitDx=0;exitDy=0;" edge="1" parent="1" source="dE4XsuyTtmp6b2fEfUUe-37">
          <mxGeometry relative="1" as="geometry">
            <mxPoint x="645" y="360" as="sourcePoint" />
            <mxPoint x="530" y="185" as="targetPoint" />
            <Array as="points">
              <mxPoint x="530" y="245" />
              <mxPoint x="530" y="185" />
            </Array>
          </mxGeometry>
        </mxCell>
        <mxCell id="dE4XsuyTtmp6b2fEfUUe-39" value="v1 :&amp;nbsp; vehicle" style="html=1;align=center;verticalAlign=top;rounded=1;absoluteArcSize=1;arcSize=10;dashed=0;" vertex="1" parent="1">
          <mxGeometry x="585" y="155" width="95" height="50" as="geometry" />
        </mxCell>
        <mxCell id="dE4XsuyTtmp6b2fEfUUe-40" value="connV" style="html=1;" vertex="1" parent="1">
          <mxGeometry x="585" y="175" width="35" height="20" as="geometry" />
        </mxCell>
        <mxCell id="dE4XsuyTtmp6b2fEfUUe-41" value="next" style="html=1;" vertex="1" parent="1">
          <mxGeometry x="650" y="175" width="30" height="20" as="geometry" />
        </mxCell>
        <mxCell id="dE4XsuyTtmp6b2fEfUUe-52" value="" style="rounded=0;orthogonalLoop=1;jettySize=auto;html=1;endArrow=none;endFill=0;exitX=1;exitY=0.5;exitDx=0;exitDy=0;" edge="1" parent="1" source="dE4XsuyTtmp6b2fEfUUe-37">
          <mxGeometry relative="1" as="geometry">
            <mxPoint x="508" y="364" as="sourcePoint" />
            <mxPoint x="530" y="280" as="targetPoint" />
            <Array as="points">
              <mxPoint x="530" y="245" />
            </Array>
          </mxGeometry>
        </mxCell>
        <mxCell id="dE4XsuyTtmp6b2fEfUUe-53" value="" style="ellipse;whiteSpace=wrap;html=1;fontFamily=Helvetica;fontSize=12;fontColor=#000000;align=center;strokeColor=#000000;fillColor=#ffffff;points=[];aspect=fixed;resizable=0;" vertex="1" parent="1">
          <mxGeometry x="556.87" y="275" width="10" height="10" as="geometry" />
        </mxCell>
        <mxCell id="dE4XsuyTtmp6b2fEfUUe-54" value="" style="rounded=1;orthogonalLoop=1;jettySize=auto;html=1;endArrow=halfCircle;endFill=0;endSize=6;strokeWidth=1;targetPerimeterSpacing=-3;sourcePerimeterSpacing=0;" edge="1" parent="1" target="dE4XsuyTtmp6b2fEfUUe-53">
          <mxGeometry relative="1" as="geometry">
            <mxPoint x="530" y="280" as="sourcePoint" />
            <mxPoint x="561.87" y="280" as="targetPoint" />
            <Array as="points">
              <mxPoint x="540" y="280" />
              <mxPoint x="550" y="280" />
            </Array>
          </mxGeometry>
        </mxCell>
        <mxCell id="dE4XsuyTtmp6b2fEfUUe-55" value="connV" style="html=1;" vertex="1" parent="1">
          <mxGeometry x="470" y="235" width="40" height="20" as="geometry" />
        </mxCell>
        <mxCell id="dE4XsuyTtmp6b2fEfUUe-56" value="moving" style="html=1;" vertex="1" parent="1">
          <mxGeometry x="470" y="235" width="40" height="20" as="geometry" />
        </mxCell>
        <mxCell id="dE4XsuyTtmp6b2fEfUUe-58" value="" style="rounded=0;orthogonalLoop=1;jettySize=auto;html=1;endArrow=none;endFill=0;exitX=0;exitY=0.5;exitDx=0;exitDy=0;" edge="1" parent="1" source="fWEaLsY42Vd3MQqkWYfv-98">
          <mxGeometry relative="1" as="geometry">
            <mxPoint x="581.87" y="280" as="sourcePoint" />
            <mxPoint x="566.87" y="280" as="targetPoint" />
          </mxGeometry>
        </mxCell>
        <mxCell id="dE4XsuyTtmp6b2fEfUUe-59" value="" style="ellipse;whiteSpace=wrap;html=1;fontFamily=Helvetica;fontSize=12;fontColor=#000000;align=center;strokeColor=#000000;fillColor=#ffffff;points=[];aspect=fixed;resizable=0;" vertex="1" parent="1">
          <mxGeometry x="555" y="180" width="10" height="10" as="geometry" />
        </mxCell>
        <mxCell id="dE4XsuyTtmp6b2fEfUUe-60" value="" style="rounded=0;orthogonalLoop=1;jettySize=auto;html=1;endArrow=halfCircle;endFill=0;endSize=6;strokeWidth=1;" edge="1" parent="1" target="dE4XsuyTtmp6b2fEfUUe-59">
          <mxGeometry relative="1" as="geometry">
            <mxPoint x="530" y="185" as="sourcePoint" />
            <mxPoint x="560" y="175" as="targetPoint" />
            <Array as="points" />
          </mxGeometry>
        </mxCell>
        <mxCell id="dE4XsuyTtmp6b2fEfUUe-61" value="" style="rounded=0;orthogonalLoop=1;jettySize=auto;html=1;endArrow=none;endFill=0;exitX=0;exitY=0.5;exitDx=0;exitDy=0;" edge="1" parent="1">
          <mxGeometry relative="1" as="geometry">
            <mxPoint x="585" y="185" as="sourcePoint" />
            <mxPoint x="565" y="185" as="targetPoint" />
          </mxGeometry>
        </mxCell>
        <mxCell id="dE4XsuyTtmp6b2fEfUUe-67" value="p : platoon" style="html=1;align=left;verticalAlign=top;rounded=1;absoluteArcSize=1;arcSize=10;dashed=0;" vertex="1" parent="1">
          <mxGeometry x="574.37" y="565" width="305.63" height="80" as="geometry" />
        </mxCell>
        <mxCell id="dE4XsuyTtmp6b2fEfUUe-68" value="connV" style="html=1;" vertex="1" parent="1">
          <mxGeometry x="649.37" y="590" width="50" height="20" as="geometry" />
        </mxCell>
        <mxCell id="dE4XsuyTtmp6b2fEfUUe-69" value="v2 : vehicle" style="html=1;align=center;verticalAlign=top;rounded=1;absoluteArcSize=1;arcSize=10;dashed=0;" vertex="1" parent="1">
          <mxGeometry x="649.37" y="580" width="95" height="50" as="geometry" />
        </mxCell>
        <mxCell id="dE4XsuyTtmp6b2fEfUUe-70" value="connV" style="html=1;" vertex="1" parent="1">
          <mxGeometry x="649.37" y="600" width="35" height="20" as="geometry" />
        </mxCell>
        <mxCell id="dE4XsuyTtmp6b2fEfUUe-71" value="docks" style="html=1;" vertex="1" parent="1">
          <mxGeometry x="714.37" y="600" width="30" height="20" as="geometry" />
        </mxCell>
        <mxCell id="dE4XsuyTtmp6b2fEfUUe-72" value="connV" style="html=1;" vertex="1" parent="1">
          <mxGeometry x="775" y="590" width="50" height="20" as="geometry" />
        </mxCell>
        <mxCell id="dE4XsuyTtmp6b2fEfUUe-73" value="v1 : vehicle" style="html=1;align=center;verticalAlign=top;rounded=1;absoluteArcSize=1;arcSize=10;dashed=0;" vertex="1" parent="1">
          <mxGeometry x="775" y="580" width="95" height="50" as="geometry" />
        </mxCell>
        <mxCell id="dE4XsuyTtmp6b2fEfUUe-74" value="connV" style="html=1;" vertex="1" parent="1">
          <mxGeometry x="775" y="600" width="35" height="20" as="geometry" />
        </mxCell>
        <mxCell id="dE4XsuyTtmp6b2fEfUUe-75" value="" style="rounded=0;orthogonalLoop=1;jettySize=auto;html=1;endArrow=none;endFill=0;exitX=0;exitY=0.5;exitDx=0;exitDy=0;" edge="1" parent="1" source="dE4XsuyTtmp6b2fEfUUe-74" target="dE4XsuyTtmp6b2fEfUUe-77">
          <mxGeometry relative="1" as="geometry">
            <mxPoint x="744.37" y="610" as="sourcePoint" />
          </mxGeometry>
        </mxCell>
        <mxCell id="dE4XsuyTtmp6b2fEfUUe-76" value="" style="rounded=0;orthogonalLoop=1;jettySize=auto;html=1;endArrow=halfCircle;endFill=0;endSize=6;strokeWidth=1;exitX=1;exitY=0.5;exitDx=0;exitDy=0;" edge="1" parent="1" source="dE4XsuyTtmp6b2fEfUUe-84">
          <mxGeometry relative="1" as="geometry">
            <mxPoint x="750" y="650" as="sourcePoint" />
            <mxPoint x="760" y="610" as="targetPoint" />
            <Array as="points">
              <mxPoint x="760" y="610" />
            </Array>
          </mxGeometry>
        </mxCell>
        <mxCell id="dE4XsuyTtmp6b2fEfUUe-77" value="" style="ellipse;whiteSpace=wrap;html=1;fontFamily=Helvetica;fontSize=12;fontColor=#000000;align=center;strokeColor=#000000;fillColor=#ffffff;points=[];aspect=fixed;resizable=0;" vertex="1" parent="1">
          <mxGeometry x="755" y="605" width="10" height="10" as="geometry" />
        </mxCell>
        <mxCell id="dE4XsuyTtmp6b2fEfUUe-78" value="docks" style="html=1;" vertex="1" parent="1">
          <mxGeometry x="840" y="600" width="30" height="20" as="geometry" />
        </mxCell>
        <mxCell id="dE4XsuyTtmp6b2fEfUUe-79" value="leader" style="html=1;" vertex="1" parent="1">
          <mxGeometry x="574.37" y="600" width="35" height="20" as="geometry" />
        </mxCell>
        <mxCell id="dE4XsuyTtmp6b2fEfUUe-80" value="" style="rounded=0;orthogonalLoop=1;jettySize=auto;html=1;endArrow=none;endFill=0;exitX=0;exitY=0.5;exitDx=0;exitDy=0;" edge="1" parent="1" source="dE4XsuyTtmp6b2fEfUUe-70">
          <mxGeometry relative="1" as="geometry">
            <mxPoint x="670" y="680" as="sourcePoint" />
            <mxPoint x="629.3699999999999" y="610" as="targetPoint" />
            <Array as="points" />
          </mxGeometry>
        </mxCell>
        <mxCell id="dE4XsuyTtmp6b2fEfUUe-81" value="" style="rounded=0;orthogonalLoop=1;jettySize=auto;html=1;endArrow=halfCircle;endFill=0;endSize=6;strokeWidth=1;" edge="1" parent="1">
          <mxGeometry relative="1" as="geometry">
            <mxPoint x="632.3699999999999" y="610" as="sourcePoint" />
            <mxPoint x="632.3699999999999" y="610" as="targetPoint" />
          </mxGeometry>
        </mxCell>
        <mxCell id="dE4XsuyTtmp6b2fEfUUe-82" value="" style="ellipse;whiteSpace=wrap;html=1;fontFamily=Helvetica;fontSize=12;fontColor=#000000;align=center;strokeColor=#000000;fillColor=#ffffff;points=[];aspect=fixed;resizable=0;" vertex="1" parent="1">
          <mxGeometry x="620" y="605" width="10" height="10" as="geometry" />
        </mxCell>
        <mxCell id="dE4XsuyTtmp6b2fEfUUe-83" value="" style="rounded=0;orthogonalLoop=1;jettySize=auto;html=1;endArrow=halfCircle;endFill=0;endSize=6;strokeWidth=1;exitX=1;exitY=0.5;exitDx=0;exitDy=0;" edge="1" parent="1" source="dE4XsuyTtmp6b2fEfUUe-79">
          <mxGeometry relative="1" as="geometry">
            <mxPoint x="649.37" y="610" as="sourcePoint" />
            <mxPoint x="625" y="610" as="targetPoint" />
            <Array as="points" />
          </mxGeometry>
        </mxCell>
        <mxCell id="dE4XsuyTtmp6b2fEfUUe-84" value="next" style="html=1;" vertex="1" parent="1">
          <mxGeometry x="714.37" y="600" width="30" height="20" as="geometry" />
        </mxCell>
        <mxCell id="dE4XsuyTtmp6b2fEfUUe-85" value="next" style="html=1;" vertex="1" parent="1">
          <mxGeometry x="840" y="600" width="30" height="20" as="geometry" />
        </mxCell>
        <mxCell id="dE4XsuyTtmp6b2fEfUUe-86" value="&lt;div align=&quot;left&quot;&gt;r : road&lt;/div&gt;" style="html=1;align=left;verticalAlign=top;rounded=1;absoluteArcSize=1;arcSize=10;dashed=0;" vertex="1" parent="1">
          <mxGeometry x="410" y="555" width="90" height="40" as="geometry" />
        </mxCell>
        <mxCell id="dE4XsuyTtmp6b2fEfUUe-87" value="" style="rounded=0;orthogonalLoop=1;jettySize=auto;html=1;endArrow=none;endFill=0;exitX=1;exitY=0.5;exitDx=0;exitDy=0;" edge="1" parent="1" source="dE4XsuyTtmp6b2fEfUUe-86">
          <mxGeometry relative="1" as="geometry">
            <mxPoint x="635" y="690" as="sourcePoint" />
            <mxPoint x="520" y="515" as="targetPoint" />
            <Array as="points">
              <mxPoint x="520" y="575" />
              <mxPoint x="520" y="515" />
            </Array>
          </mxGeometry>
        </mxCell>
        <mxCell id="dE4XsuyTtmp6b2fEfUUe-88" value="v3 :&amp;nbsp; vehicle" style="html=1;align=center;verticalAlign=top;rounded=1;absoluteArcSize=1;arcSize=10;dashed=0;" vertex="1" parent="1">
          <mxGeometry x="575" y="485" width="95" height="50" as="geometry" />
        </mxCell>
        <mxCell id="dE4XsuyTtmp6b2fEfUUe-89" value="connV" style="html=1;" vertex="1" parent="1">
          <mxGeometry x="575" y="505" width="35" height="20" as="geometry" />
        </mxCell>
        <mxCell id="dE4XsuyTtmp6b2fEfUUe-90" value="next" style="html=1;" vertex="1" parent="1">
          <mxGeometry x="640" y="505" width="30" height="20" as="geometry" />
        </mxCell>
        <mxCell id="dE4XsuyTtmp6b2fEfUUe-91" value="" style="rounded=0;orthogonalLoop=1;jettySize=auto;html=1;endArrow=none;endFill=0;exitX=1;exitY=0.5;exitDx=0;exitDy=0;" edge="1" parent="1" source="dE4XsuyTtmp6b2fEfUUe-86">
          <mxGeometry relative="1" as="geometry">
            <mxPoint x="498" y="694" as="sourcePoint" />
            <mxPoint x="520" y="610" as="targetPoint" />
            <Array as="points">
              <mxPoint x="520" y="575" />
            </Array>
          </mxGeometry>
        </mxCell>
        <mxCell id="dE4XsuyTtmp6b2fEfUUe-92" value="" style="ellipse;whiteSpace=wrap;html=1;fontFamily=Helvetica;fontSize=12;fontColor=#000000;align=center;strokeColor=#000000;fillColor=#ffffff;points=[];aspect=fixed;resizable=0;" vertex="1" parent="1">
          <mxGeometry x="546.87" y="605" width="10" height="10" as="geometry" />
        </mxCell>
        <mxCell id="dE4XsuyTtmp6b2fEfUUe-93" value="" style="rounded=1;orthogonalLoop=1;jettySize=auto;html=1;endArrow=halfCircle;endFill=0;endSize=6;strokeWidth=1;targetPerimeterSpacing=-3;sourcePerimeterSpacing=0;" edge="1" parent="1" target="dE4XsuyTtmp6b2fEfUUe-92">
          <mxGeometry relative="1" as="geometry">
            <mxPoint x="520" y="610" as="sourcePoint" />
            <mxPoint x="551.87" y="610" as="targetPoint" />
            <Array as="points">
              <mxPoint x="530" y="610" />
              <mxPoint x="540" y="610" />
            </Array>
          </mxGeometry>
        </mxCell>
        <mxCell id="dE4XsuyTtmp6b2fEfUUe-94" value="connV" style="html=1;" vertex="1" parent="1">
          <mxGeometry x="460" y="565" width="40" height="20" as="geometry" />
        </mxCell>
        <mxCell id="dE4XsuyTtmp6b2fEfUUe-95" value="moving" style="html=1;" vertex="1" parent="1">
          <mxGeometry x="460" y="565" width="40" height="20" as="geometry" />
        </mxCell>
        <mxCell id="dE4XsuyTtmp6b2fEfUUe-96" value="" style="rounded=0;orthogonalLoop=1;jettySize=auto;html=1;endArrow=none;endFill=0;exitX=0;exitY=0.5;exitDx=0;exitDy=0;" edge="1" parent="1" source="dE4XsuyTtmp6b2fEfUUe-79">
          <mxGeometry relative="1" as="geometry">
            <mxPoint x="571.87" y="610" as="sourcePoint" />
            <mxPoint x="556.8699999999999" y="610" as="targetPoint" />
          </mxGeometry>
        </mxCell>
        <mxCell id="dE4XsuyTtmp6b2fEfUUe-97" value="" style="ellipse;whiteSpace=wrap;html=1;fontFamily=Helvetica;fontSize=12;fontColor=#000000;align=center;strokeColor=#000000;fillColor=#ffffff;points=[];aspect=fixed;resizable=0;" vertex="1" parent="1">
          <mxGeometry x="545" y="510" width="10" height="10" as="geometry" />
        </mxCell>
        <mxCell id="dE4XsuyTtmp6b2fEfUUe-98" value="" style="rounded=0;orthogonalLoop=1;jettySize=auto;html=1;endArrow=halfCircle;endFill=0;endSize=6;strokeWidth=1;" edge="1" parent="1" target="dE4XsuyTtmp6b2fEfUUe-97">
          <mxGeometry relative="1" as="geometry">
            <mxPoint x="520" y="515" as="sourcePoint" />
            <mxPoint x="550" y="505" as="targetPoint" />
            <Array as="points" />
          </mxGeometry>
        </mxCell>
        <mxCell id="dE4XsuyTtmp6b2fEfUUe-99" value="" style="rounded=0;orthogonalLoop=1;jettySize=auto;html=1;endArrow=none;endFill=0;exitX=0;exitY=0.5;exitDx=0;exitDy=0;" edge="1" parent="1">
          <mxGeometry relative="1" as="geometry">
            <mxPoint x="575" y="515" as="sourcePoint" />
            <mxPoint x="555" y="515" as="targetPoint" />
          </mxGeometry>
        </mxCell>
      </root>
    </mxGraphModel>
  </diagram>
</mxfile>
